<svg
  width="205"
  height="36"
  viewBox="0 0 205 36"
  fill="none"
  xmlns="http://www.w3.org/2000/svg"
  style="color: black;"
>
  <path
    d="M192.862 27.4876H198.258V20.7665C198.258 19.3563 198.367 17.5712 199.572 16.307C200.245 15.6019 201.11 15.1953 202.27 15.1953C203.206 15.1953 203.994 15.4177 204.705 15.7925L205.006 10.7803C204.404 10.5961 203.917 10.5199 203.244 10.5199C202.193 10.5199 201.257 10.666 200.36 11.225C199.502 11.7459 198.752 12.5971 198.265 13.531V10.9328H192.869V27.5003L192.862 27.4876ZM191.042 19.5723C191.042 17.5267 190.664 14.9285 188.684 12.8512C186.621 10.6977 183.923 10.361 182.051 10.361C180.18 10.361 177.668 10.7358 175.643 12.7369C173.957 14.4457 173.092 16.8978 173.092 19.2737C173.092 22.0244 174.143 24.216 175.604 25.6644C177.553 27.5956 179.764 28.0402 182.276 28.0402C184.147 28.0402 185.948 27.7798 187.563 26.8142C188.537 26.217 190.036 24.991 190.786 22.6533L185.691 22.1323C185.243 23.0598 184.602 23.4727 184.531 23.5045C183.967 23.8412 183.147 23.9873 182.359 23.9873C181.571 23.9873 180.411 23.8412 179.584 22.9455C178.911 22.2022 178.572 21.0143 178.572 20.1249H191.049V19.5659L191.042 19.5723ZM178.751 16.9359C178.898 16.1927 179.276 15.5956 179.687 15.1509C180.212 14.63 181.039 14.0709 182.423 14.0709C183.512 14.0709 184.371 14.4457 184.974 14.9984C185.762 15.7417 186.025 16.7835 186.063 16.9296H178.757L178.751 16.9359ZM165.409 3.52568C165.409 5.27263 166.793 6.64479 168.555 6.64479C170.317 6.64479 171.702 5.27263 171.702 3.52568C171.702 1.77872 170.317 0.406564 168.555 0.406564C166.793 0.406564 165.409 1.77872 165.409 3.52568ZM165.857 27.4876H171.253V10.9201H165.857V27.4876ZM154.239 14.9666C155.328 14.9666 156.373 15.3732 157.161 16.1165C157.911 16.8216 158.436 17.9015 158.436 19.1276C158.436 20.2075 157.988 21.4653 157.122 22.2848C156.334 23.0281 155.251 23.4346 154.239 23.4346C153.079 23.4346 151.951 22.9518 151.169 22.1705C150.381 21.351 149.971 20.2774 149.971 19.2356C149.971 18.1938 150.381 17.0439 151.246 16.1863C151.771 15.6654 152.745 14.9603 154.245 14.9603M150.349 25.5818C150.913 26.3632 152.335 28.0339 155.668 28.0339C157.879 28.0339 159.679 27.4367 161.326 25.8041C162.973 24.1715 163.986 22.0116 163.986 19.153C163.986 16.4404 162.973 14.1726 161.474 12.6924C160.423 11.6506 158.552 10.3547 155.552 10.3547C154.277 10.3547 152.105 10.6151 150.342 12.883V10.9137H144.946V35.9873H150.342V25.5881L150.349 25.5818ZM81.3233 27.4749H86.7192V19.0069C86.7192 18.4479 86.7576 16.5929 87.7702 15.6273C88.2957 15.1445 88.9301 14.9603 89.6414 14.9603C90.2054 14.9603 90.8783 15.0683 91.4422 15.6273C92.2689 16.4468 92.3074 17.7427 92.3074 18.8608V27.4812H97.7033V19.2356C97.7033 18.1556 97.8122 16.8597 98.53 15.964C98.9786 15.3669 99.7283 14.9603 100.632 14.9603C101.42 14.9603 102.132 15.297 102.58 15.8497C103.291 16.739 103.291 18.2255 103.291 19.0831V27.4812H108.687V17.0058C108.687 15.8179 108.578 13.5881 106.963 12.0635C105.951 11.0979 104.304 10.5008 102.279 10.5008C100.965 10.5008 99.8821 10.7231 98.7158 11.4283C97.6264 12.0953 96.9919 12.8767 96.5818 13.5437C96.1332 12.54 95.4219 11.7205 94.5567 11.2377C93.4352 10.5707 92.1215 10.4944 91.4102 10.4944C90.1349 10.4944 88.1098 10.7549 86.7256 12.8322V10.901H81.3297V27.4685L81.3233 27.4749ZM69.3715 14.9539C70.3456 14.9539 71.544 15.3224 72.3707 16.1038C73.1589 16.847 73.6075 17.9587 73.6075 19.153C73.6075 20.5633 73.0051 21.6051 72.2938 22.2721C71.5824 22.9772 70.5699 23.4219 69.4804 23.4219C68.2052 23.4219 67.0452 22.901 66.2954 22.1196C65.8084 21.5987 65.174 20.6331 65.174 19.1466C65.174 17.6601 65.8469 16.6945 66.4108 16.1355C67.1221 15.4304 68.2116 14.9476 69.3715 14.9476M73.2678 12.756C71.7298 10.6723 69.4484 10.342 68.0193 10.342C65.6931 10.342 63.6744 11.1615 62.2133 12.6098C60.6752 14.1345 59.6307 16.5103 59.6307 19.2991C59.6307 21.4907 60.3035 23.6443 62.0659 25.5056C63.9051 27.4367 65.9238 28.0339 68.3269 28.0339C69.7112 28.0339 71.8131 27.6972 73.2742 25.4674V27.4749H78.6702V10.9074H73.2742V12.7623L73.2678 12.756ZM40.8154 27.4685H46.2114V19.1848C46.2114 18.3653 46.2498 16.7708 47.3328 15.729C47.634 15.4304 48.3069 14.9095 49.4669 14.9095C50.2551 14.9095 51.0754 15.1699 51.5688 15.6527C52.434 16.4722 52.466 17.8062 52.466 18.9561V27.4622H57.8619V16.9487C57.8619 15.6845 57.753 13.6453 56.215 12.1207C54.7538 10.6342 52.8057 10.45 51.4919 10.45C50.2935 10.45 49.3579 10.5643 48.23 11.1551C47.5956 11.4918 46.8778 12.0445 46.2049 12.8639V0.406564H40.809V27.4876L40.8154 27.4685ZM32.6703 27.4685H38.0662V0.406564H32.6703V27.4876V27.4685ZM12.8169 10.901V20.8936C12.8169 22.7168 13.1181 24.3875 14.6561 25.874C16.5659 27.729 19.3407 28.0275 21.4042 28.0275C23.4678 28.0275 26.1978 27.729 28.1139 25.874C29.7993 24.2414 29.9852 22.4563 29.9852 20.5633V10.9074H24.5892V20.0487C24.5892 20.8682 24.4739 21.9799 23.6921 22.7231C23.205 23.1678 22.4168 23.5045 21.4042 23.5045C20.2059 23.5045 19.533 23.0598 19.1549 22.7231C18.2897 21.9418 18.2192 20.792 18.2192 20.0487V10.9074H12.8233L12.8169 10.901ZM11.6185 15.208V10.901H7.34409V8.11223C7.34409 7.33086 7.34409 6.02859 7.94648 5.25357C8.17078 4.955 8.69627 4.58655 9.52296 4.58655C10.1958 4.58655 10.9841 4.84701 11.5865 5.21546V0.559026C10.6893 0.22234 9.71521 0 8.51043 0C6.4469 0 4.91528 0.74325 3.82585 1.89307C2.14042 3.67814 1.95458 5.79354 1.95458 7.64849V10.9201H0V15.2271H1.94817V27.4876H7.34409V15.2271H11.6185V15.208Z"
    fill="currentColor"
  />
  <path
    d="M141.8 24.3428H111.911V27.5H141.8V24.3428Z"
    fill="currentColor"
  />
</svg>