<svg width="125" height="61" viewBox="0 0 125 61" fill="none" xmlns="http://www.w3.org/2000/svg">
<g clip-path="url(#clip0_1106_11844)">
<path d="M37.9768 53.3572C39.4558 51.2208 40.5056 49.4734 41.4015 46.9104H44.1646C42.8805 50.173 41.3622 52.7361 39.2233 55.649V59.9986H36.7714V55.6882C34.6307 52.7378 33.1141 50.2123 31.8301 46.9513H34.5931C35.4497 49.5144 36.4995 51.2617 37.9785 53.3589" fill="white"/>
<path d="M63.307 52.271C62.1016 51.8819 61.4006 51.6874 60.9731 51.3768C60.5064 51.1055 60.3901 50.7557 60.3901 50.4059C60.3901 49.8615 60.7013 49.5134 61.1681 49.2796C61.6348 49.0459 62.2572 48.9691 62.8026 48.9691C63.6592 48.9691 64.6321 49.1636 65.6426 49.5134L66.4599 47.6107C65.4477 47.1056 64.0867 46.7951 62.8026 46.7951C61.5186 46.7951 60.3132 47.1056 59.4959 47.6875C58.4837 48.3479 57.9793 49.3189 57.9793 50.4827C57.9793 52.7351 59.8857 53.5901 61.7528 54.2112C62.5308 54.4825 63.3481 54.6771 63.8935 54.9876C64.4389 55.2982 64.7501 55.7248 64.7501 56.2692C64.7501 56.8903 64.3603 57.3186 63.9721 57.5114C63.5054 57.7828 62.765 57.9005 62.0264 57.9005C60.2755 57.9005 59.0308 57.2401 58.1349 56.619L57.2783 58.6001C58.4067 59.455 60.2738 60.0762 62.1426 60.0762C65.022 60.0762 67.2019 58.5609 67.2019 56.1156C67.2019 53.9791 65.4511 52.9314 63.3104 52.271" fill="white"/>
<path d="M49.8431 57.7069H48.0529V49.2021H49.6088C52.3325 49.2021 54.0834 50.6781 54.0834 53.3572C54.0834 56.0363 52.4881 57.7069 49.8414 57.7069M49.5695 46.9104H45.6387V59.9969H49.802C53.6542 59.9969 56.5335 57.2786 56.5335 53.3572C56.5335 49.4359 53.8098 46.9104 49.5678 46.9104" fill="white"/>
<path d="M79.3002 58.0195H77.1989V54.2142H79.3772C81.2443 54.2142 82.2171 54.7193 82.2171 56.04C82.2171 57.7874 80.5432 58.0212 79.2985 58.0212M77.1972 48.8952H79.0643C80.8151 48.8952 81.6324 49.3218 81.6324 50.4481C81.6324 51.5743 80.8151 52.2347 79.2592 52.2347H77.1972V48.8952V48.8952ZM81.711 53.1289C83.1114 52.663 83.968 51.6921 83.968 50.1768C83.968 47.885 81.9436 46.9533 79.9602 46.9533H74.8633V60.0007H79.6097C82.0615 60.0007 84.551 58.9905 84.551 56.2721C84.551 54.4462 83.4225 53.3592 81.711 53.1272" fill="white"/>
<path d="M110.273 46.9104H107.977V56.3469H107.938L102.413 46.9104H99.416V59.9969H101.673V50.2498H101.712L107.355 59.9969H110.273V46.9104Z" fill="white"/>
<path d="M117.86 53.2019L123.93 46.9104H120.857L115.41 52.7736H115.331V46.9104H113.035V59.9969H115.331V53.6678H115.41L121.206 59.9969H124.436L117.86 53.2019Z" fill="white"/>
<path d="M10.1172 59.9969H17.471L18.249 57.6677H12.4904V46.9104H10.1172V59.9969Z" fill="white"/>
<path d="M0 59.9969H7.35386L8.17114 57.6677H2.41253V46.9104H0V59.9969Z" fill="white"/>
<path d="M25.2911 57.9005C22.6443 57.9005 21.1277 55.9586 21.1277 53.474C21.1277 50.9895 22.6443 49.0476 25.2911 49.0476C27.9378 49.0476 29.4938 51.068 29.4938 53.5133C29.4544 55.921 27.9378 57.9022 25.2911 57.9022M25.3304 46.7951C21.3226 46.7951 18.6758 49.7455 18.6758 53.474C18.6758 57.2026 21.244 60.1137 25.2911 60.1137C29.3382 60.1137 31.9439 57.1241 31.9439 53.4348C31.9046 49.7455 29.2971 46.7951 25.3287 46.7951" fill="white"/>
<path d="M91.5559 57.2038C92.5288 57.2038 93.4623 57.1253 94.2796 56.8933L95.485 60.0007H98.2088L92.5664 46.9533H90.5813L84.9014 60.0007H87.6251L88.8305 56.8933C89.6478 57.127 90.5813 57.2038 91.5542 57.2038M91.5542 55.2227C90.8532 55.2227 90.2308 55.1834 89.5315 55.0281L91.5542 49.8628L93.5769 55.0281C92.8759 55.1834 92.2535 55.2227 91.5542 55.2227Z" fill="white"/>
<path d="M84.1063 21.5902C85.0005 22.2506 85.9358 22.7164 85.9358 23.7642C85.9358 24.0748 85.5459 24.3853 84.691 24.3853C84.0293 24.3853 83.33 24.1908 82.9795 23.7249C82.7077 23.3751 83.0958 22.87 82.8632 22.5219C82.6683 22.2113 82.2802 22.3666 82.0066 22.2113C81.6955 22.0168 81.6561 21.9008 81.4236 21.4349C81.1893 20.8906 80.3721 19.9981 79.3992 19.0271C78.5819 18.2115 77.7253 17.7849 77.3372 17.8224C77.0653 17.8617 76.9867 17.8617 76.7148 17.8617C76.0155 17.8617 75.4307 18.522 74.4185 18.9487C73.7175 19.2592 73.3294 19.4145 72.9019 19.493L72.7463 19.6875L73.6406 19.6483C74.4972 19.6483 75.5863 19.5322 76.4412 19.5322C77.2961 19.5322 77.7253 20.3087 78.0758 21.1243C78.7375 22.7557 79.7104 25.1242 80.9158 27.1054C81.4988 28.0371 81.9656 28.619 81.9656 29.7845C81.9656 30.1343 81.9263 30.6394 81.4595 30.6394C80.7978 30.6394 79.1239 29.9397 79.1239 29.2026C79.1239 28.6207 79.5907 28.3869 79.5907 27.805C79.5907 27.4552 79.0453 27.4944 78.929 27.1839C78.5015 25.4365 77.9954 23.6891 77.0226 22.6396C76.5165 22.0953 76.4395 21.8632 75.9334 21.8632C75.6616 21.8632 75.388 21.94 75.1555 22.0185C73.7945 22.5236 71.965 24.0765 69.6687 24.7368C68.8121 25.0082 68.6565 24.5031 67.7623 24.6584H67.8392C67.1006 24.8136 66.5552 25.2402 65.543 25.5133C64.1819 25.9006 61.807 26.0952 59.9006 25.8238C58.5379 25.6293 56.7871 25.358 56.0484 25.3972C55.4637 27.0286 54.2583 29.2026 52.4288 30.0575C51.4559 30.4841 51.184 31.0677 51.4559 32.1547C51.8064 33.5147 53.0118 34.4857 53.6359 35.6494C54.2189 36.6204 55.1525 38.2125 56.1254 38.7176C57.0982 39.2227 57.7206 39.9599 57.7206 40.6203C57.7206 40.9308 57.6043 41.0861 57.2932 41.0861H55.3098C54.9986 41.0861 54.843 40.8916 54.8037 40.7755C54.5318 40.2704 54.725 39.8046 54.3369 39.3387C54.0651 39.0282 53.8701 39.105 53.5196 38.8336C52.9366 38.2517 53.364 37.9412 52.9366 37.2023C51.6919 35.2228 51.1464 34.757 50.0966 33.3185C49.5136 32.5813 48.7732 32.1922 48.7732 31.2213C48.7732 30.0182 49.9803 29.8237 49.941 28.619C49.1631 29.2009 48.2688 29.6292 46.8668 29.8237C46.6719 29.863 46.2051 30.2128 46.0102 30.4448C45.5434 30.9107 45.3485 31.4158 45.2715 32.1154C45.116 33.7468 44.8048 35.3781 44.9997 37.0078C45.2715 38.0572 45.4665 38.4053 46.3231 38.9889C46.8685 39.3387 47.4909 39.8438 47.5678 40.6203C47.5678 40.8148 47.4909 41.0861 47.2173 41.0861H45.0766C44.8817 41.0861 44.6868 40.9308 44.6099 40.8148C44.3773 40.3882 44.5312 40.1152 44.4149 39.6118C44.22 38.6408 43.0915 38.6801 43.0915 37.6698C43.0915 37.3593 43.2865 36.9719 43.2865 36.3491C43.3651 34.9908 43.7532 32.7366 43.3651 30.0575C43.1702 28.5046 44.8048 28.4261 45.6614 27.0678C46.1675 26.2914 46.0119 26.602 46.3231 26.0576C46.6343 25.4757 46.5556 25.0474 46.518 24.6993C46.518 24.2335 46.0512 23.3017 46.3624 21.3598C46.4787 20.5049 46.9078 19.6124 47.4909 18.8753C47.4909 18.836 47.4909 18.72 47.2959 18.72C46.4393 18.7968 46.4393 18.5647 45.8956 18.5647C45.3519 18.5647 44.9227 19.0306 44.8458 19.2643C44.5739 19.1483 44.456 18.8377 44.456 18.6824C44.456 18.3719 44.5346 18.1006 44.8065 17.8275C44.9227 17.7115 44.8065 17.633 44.6509 17.633C43.9892 17.633 43.3668 18.4487 43.2112 18.993C42.8214 18.9145 42.7838 18.4111 42.6282 18.4111C42.4333 18.4111 42.317 18.6824 42.317 18.9555C42.317 20.8581 45.4306 21.2847 45.4306 23.8103C45.4306 26.7231 41.9289 26.102 41.9289 27.1497C41.9289 27.3443 42.0845 27.5388 42.3563 27.6548C42.2401 27.9262 41.9289 28.0422 41.6177 28.0422C40.8397 28.0422 40.2567 27.4603 40.2567 26.6822C40.2567 25.0901 42.3974 25.0508 42.3974 23.8478C42.3974 23.2659 42.0469 23.1106 41.6963 22.8376C39.6737 21.4008 38.5059 19.964 38.5059 17.5955C38.5059 15.0324 40.296 13.0905 42.5923 13.0905C45.9384 13.0905 46.0546 16.9743 49.0895 17.2849C50.218 16.5085 51.579 16.0426 52.9024 16.0426C54.8875 16.0426 55.7424 16.5477 57.8437 16.5477C58.7003 16.5477 60.1007 16.3139 61.7746 15.1501C62.3969 14.7235 62.6688 14.645 63.2535 14.1399C64.5769 13.0137 65.8217 10.8005 65.8217 9.20837V9.28516C65.8217 8.78006 65.7054 8.46949 65.4711 8.46949C64.7701 8.46949 64.1084 9.12987 63.4091 9.82951C62.9423 10.2954 63.6434 10.5291 62.6312 11.0718C62.2807 11.2663 61.8532 10.9165 61.4634 10.9165C60.6461 10.9165 60.2956 9.94554 60.2956 9.12987C60.2956 8.70327 60.6068 8.58552 60.8017 8.19816C61.2291 7.38249 61.1915 7.07192 61.5796 6.2955C61.8139 5.75115 62.2413 5.40304 62.202 5.01397C62.202 4.85869 62.0857 4.78019 62.0857 4.62491C62.0857 3.80924 63.1749 3.26489 63.1749 2.45092C63.1749 1.98507 62.6688 1.79053 62.5525 1.44072C62.4362 1.0909 62.5132 0.974863 62.5132 0.974863C62.5525 0.896367 62.5918 0.896367 62.6688 0.896367C63.0962 0.896367 63.2518 1.36222 63.6417 1.596C63.681 1.05165 63.4861 0.935615 63.4861 0.548256C63.4861 0.353724 63.4467 0.00390625 63.681 0.00390625C63.9528 0.00390625 63.9152 0.353724 64.1478 0.548256C64.4589 0.782037 64.7325 0.742789 65.0437 0.974863C65.4711 1.24618 65.7054 1.71204 65.861 1.71204C66.2884 1.79053 66.4064 1.24618 66.1722 0.974863C66.6389 0.935615 67.145 1.32468 67.7674 1.32468C68.7403 1.32468 69.0908 1.596 69.284 1.75129C69.9064 2.29564 70.0226 2.72224 70.7237 2.72224C71.0742 2.72224 71.2691 2.41167 71.346 2.29564C71.8128 2.64545 71.8521 3.53791 71.346 4.31434C71.5409 4.93548 72.4352 5.01397 72.8626 5.32454C73.2901 5.63511 73.2131 5.7904 73.5243 5.94568C73.7586 6.10097 73.9911 6.06172 74.1467 5.94568C74.3416 6.8006 73.6406 7.53778 72.7463 7.65381C72.7857 8.74081 73.9141 9.40119 74.4202 9.67252C74.1091 10.3329 73.5636 10.5274 73.0969 10.6435C73.2525 11.3039 73.9535 12.2748 73.603 13.1297C73.2918 12.9745 72.7857 13.1297 72.7857 13.5956C72.7857 14.1399 73.4867 14.4113 72.7463 14.8003C72.4352 14.9949 72.3565 15.4607 72.9413 15.9266C73.7192 15.732 74.4596 15.732 75.3538 15.732C75.8992 15.732 76.5985 15.5768 77.1046 15.5768C78.0006 15.5768 78.5443 15.9266 79.206 16.6637C80.8799 18.4111 82.3965 20.3138 84.1097 21.5953" fill="white"/>
<path d="M39.5543 16.8137C39.9048 16.8137 40.5665 14.8325 41.9275 14.8325C42.3173 14.8325 42.3943 14.9878 42.3943 15.1431C42.3943 15.4144 41.9275 15.6482 41.9275 15.998C41.9275 16.0765 41.9668 16.1533 42.0831 16.1533C42.3943 16.1533 42.6678 15.4161 43.9895 15.4161C44.34 15.4161 44.6512 15.4553 44.9624 15.5321C45.118 15.5714 45.4292 15.7267 45.2736 15.2983C44.9624 14.3666 43.9109 13.5117 42.4729 13.5117C41.035 13.5117 39.515 14.7932 39.3594 16.3461C39.3987 16.6174 39.3987 16.8119 39.5543 16.8119" fill="white"/>
<path d="M64.4571 4.46407C64.0673 4.30878 63.9903 4.11425 64.1459 3.60915C64.2246 3.10405 64.2622 2.87197 64.0297 2.83272C63.8348 2.75423 63.5629 2.91122 63.291 3.18254C63.0568 3.49311 62.6687 3.91972 62.5524 4.23029C62.4361 4.65689 62.9405 4.58011 62.5917 5.27803C61.9694 6.40427 61.8138 6.6756 61.5026 7.45202C61.2307 8.30694 61.0358 8.42298 60.8802 8.6943C60.6853 8.92808 61.1145 8.96562 61.5812 8.81034C62.0873 8.6158 62.1267 9.23694 61.9317 9.66526C61.7761 9.97583 61.8924 10.0919 62.3199 9.74375C62.7097 9.43318 62.1249 9.1994 62.2412 8.22844C62.3968 7.37352 62.5524 6.86842 63.0978 6.01521C63.5646 5.27803 63.9544 4.73368 64.7324 5.00501C65.0436 5.16029 64.888 4.65519 64.4605 4.46066" fill="white"/>
<path d="M81.1498 29.9015C81.3054 29.9015 81.3447 29.707 81.3447 29.5141C81.3447 29.0875 81.1105 28.4664 80.76 28.1934C80.683 28.8145 80.3701 29.2411 80.3701 29.5141C80.3701 29.7087 80.9532 29.9015 81.1481 29.9015" fill="white"/>
<path d="M84.8841 23.882C85.1184 23.882 85.4672 23.8035 85.4672 23.6107C85.4672 23.2609 84.9217 22.6398 84.455 22.4845C84.7661 23.1056 84.455 23.882 84.8824 23.882" fill="white"/>
<path d="M68.3858 15.6878C71.7712 17.2407 71.5762 20.0768 71.8481 19.3771C71.9644 19.0666 72.4311 17.669 71.2257 16.309C70.2922 15.222 69.9417 15.4933 70.2922 14.6008C71.7712 11.0276 72.7047 5.63016 68.2695 3.76674C67.7634 3.57221 67.3359 3.57221 67.3359 3.6507C67.3359 3.7292 67.8027 3.88448 68.3858 4.27184C71.3437 6.21375 70.4084 11.5344 67.7241 14.0974C66.8675 14.9899 67.2966 15.1844 68.3858 15.6895" fill="white"/>
<path d="M56.7917 40.5431C57.0242 40.5431 56.908 40.1932 56.831 40.038C56.6361 39.6881 56.248 39.4561 55.8975 39.3008C55.9761 39.6506 56.0137 40.5431 56.3642 40.5431H56.7917" fill="white"/>
<path d="M46.5571 40.5431C46.7914 40.5431 46.6358 40.1932 46.5178 40.038C46.3229 39.6881 45.8954 39.4561 45.5449 39.3008C45.6236 39.6506 45.7005 40.5431 46.051 40.5431H46.5571" fill="white"/>
<path d="M58.97 20.231C60.8372 20.0365 61.1483 19.6099 61.4595 18.2123C61.6151 17.5519 62.0819 16.854 62.5093 16.4257C62.7812 16.1151 63.0548 15.8813 63.3266 15.4547C63.4053 15.2602 63.4822 15.1441 63.3266 15.1834C63.1317 15.3387 62.47 15.7653 62.1982 15.9598C60.8748 16.8915 58.8521 17.3181 58.0741 17.3181C56.3626 17.3181 54.8836 16.813 53.3277 16.813C48.6582 16.813 46.9074 20.4631 47.1416 22.5995C47.181 22.9493 47.2186 22.9493 47.3366 22.9493C47.6477 22.9493 47.9589 21.7071 49.1267 20.5808C50.8382 18.9495 52.707 18.0178 55.3521 18.0178C57.2585 18.0178 58.0758 18.6389 58.0758 18.8727C58.0758 19.3385 57.2585 19.3778 57.3372 19.8436C57.2979 20.0382 57.7253 20.388 58.9718 20.2327" fill="white"/>
</g>
<defs>
<clipPath id="clip0_1106_11844">
<rect width="124.436" height="60.114" fill="white"/>
</clipPath>
</defs>
</svg>
