<svg xmlns="http://www.w3.org/2000/svg" width="40" height="10" fill="none" viewBox="0 0 40 10"><path fill="#453C90" d="m4.19 9.931-.098-.016-.108-.02A5 5 0 0 1 2.63 9.4l.015-.087c.107-.676.218-1.373.496-2.004a.56.56 0 0 0 .137-.244l1.065.034.207.004a.5.5 0 0 0 .242-.081.48.48 0 0 0 .596-.068c.195.095.378.176.612.176h.05q.39-.032.768-.136c.246-.06.516-.132.791-.214q-.311.348-.674.641-.51.369-1.081.632c-.204.101-.391.235-.552.396q-.162.178-.27.393l-.053.094a3 3 0 0 1-.115.174 1.5 1.5 0 0 0-.205.357 10 10 0 0 0-.148.473l-.01.03a5 5 0 0 1-.312-.04m2.034-1.828c.378.515.932.82 1.503 1.085a4.98 4.98 0 0 1-3.016.803c.043-.148.09-.302.141-.449q.068-.165.178-.307.068-.09.125-.19.028-.046.055-.096.094-.19.235-.348.22-.218.497-.357zM2.818 2.457A12.4 12.4 0 0 0 2.609.609a5 5 0 0 1 5.5.475 1 1 0 0 0-.091.102q-.113.158-.175.343l-.048.12-.066.152q-.166.41-.402.781a3 3 0 0 1-.437.488 5 5 0 0 0-.313.32q-.038.052-.08.104L6.3 3.317l-.044-.08a.33.33 0 0 1-.066-.18c.007-.064.098-.135.168-.193l.057-.049a.1.1 0 0 0 .036-.071.104.104 0 0 0-.173-.084l-.051.043c-.098.076-.217.178-.242.32a.5.5 0 0 0 .09.317l.011.022-.064.094c-.1.156-.175.257-.273.244-.255-.04-.31.105-.36.244-.052.138-.09.333.173.44l.072.032q.143.065.295.106.085.02.172.028l.234.01q.243.011.484.027.331.016.65.11c.128.04.208.17.27.285.099.188.194.395.31.67q.123.282.287.543l.04.068q-.082.045-.166.08-.712.285-1.46.454a4 4 0 0 1-.719.127c-.202.012-.366-.062-.551-.15a.5.5 0 0 0 .016-.121.426.426 0 0 0-.336-.43c.006-.086.013-.175.022-.256q.03-.24.03-.48a7 7 0 0 0-.014-.26c-.005-.1-.013-.2-.013-.3v-.05c0-.298-.004-.742-.335-.893a1.45 1.45 0 0 0-.719-.103 2 2 0 0 0-.187.027c-.129.023-.279.05-.36.007-.052-.028-.072-.114-.084-.203q-.017-.15-.014-.3V3.34q-.002-.212-.019-.417l-.01-.162-.012-.163a1.8 1.8 0 0 1 0-.487c.046-.23.084-.457.115-.65a.104.104 0 1 0-.204-.034c-.033.191-.07.417-.115.643q-.04.272-.005.543l.011.162c.004.051.011.107.011.163.009.134.019.273.019.406v.068q-.005.163.015.325c.013.089.052.283.198.357s.327.041.488.013a2 2 0 0 1 .16-.024c.214-.025.429.006.627.088.217.096.217.459.217.703v.052q.002.155.014.313c.005.084.013.172.013.253q0 .227-.029.452-.013.131-.023.27a.43.43 0 0 0-.367.439q0 .114.054.215a.26.26 0 0 1-.153.031l-1.2-.043a.55.55 0 0 0-.081-.244c-.298-.65-.379-1.377-.459-2.08l-.015-.118q.092-.976.081-1.957m1.148.1q-.007.126.013.251c.006.05.041.242.086.264s.16 0 .206 0h.525v-.4H4.68v-.508h-.531c-.06 0-.083-.012-.114.027-.06.08-.063.274-.068.367M2.302 6.46a46 46 0 0 0-.03.906c-.29-.032-.565-.166-.565-.452 0-.285.293-.428.595-.454m.29.014a.8.8 0 0 1 .297.106.38.38 0 0 1 .2.335c0 .263-.249.406-.524.446q.006-.455.028-.887M8.867 6.2l1.045-.262c-.101.53-.287 1.04-.552 1.511a5 5 0 0 0-.423-.535.8.8 0 0 0-.226-.15 1 1 0 0 1-.133-.082.5.5 0 0 1-.13-.219q.218-.105.403-.263l.017.001zm.247-.644a2.7 2.7 0 0 1-.374.468 1.4 1.4 0 0 1-.177.135l-.042-.07a4 4 0 0 1-.278-.52 9 9 0 0 0-.322-.686 1 1 0 0 0-.142-.216L7.61 2.524q.17-.312.304-.64l.065-.15q.027-.064.052-.13.052-.154.145-.29.041-.05.088-.097A5 5 0 0 1 9.955 4.32l-.064.094c-.227.339-.46.689-.698 1.028-.029.039-.052.077-.08.115zM6.836 4.378q-.246-.016-.491-.029l-.17-.008.04-.065q.232-.395.522-.75c.093-.107.198-.208.3-.306q.21-.194.39-.416l.134 1.705-.022-.01a2.9 2.9 0 0 0-.703-.12m2.447 1.297.078-.111c.213-.305.421-.617.625-.922q.013.177.014.359 0 .357-.051.712l-.844.213c.063-.082.12-.17.178-.25M6.37 3.662a11 11 0 0 0-.333.505l-.09.144a2 2 0 0 1-.232-.087l-.07-.032c-.09-.04-.107-.05-.06-.177.048-.126.048-.127.138-.113.235.034.377-.18.478-.335l.025-.04zm-3.77 2.6c.016-.32.04-.645.067-.966q.075.542.249 1.061a1.1 1.1 0 0 0-.315-.095m-.937 1.06q.376.919.621 1.878A5 5 0 0 1 .254 6.58l.005-.008.062-.042q.157-.093.28-.229.147.109.29.23l.21.168q.112.082.232.15.09.052.171.107c.01.135.067.262.161.36zM.2 4.007a1 1 0 0 0-.08-.071 5 5 0 0 1 1.046-2.138l.02.354c.03.594.061 1.211.12 1.813l.006.046c.017.145.012.195-.046.227a.6.6 0 0 1-.213.039c-.03 0-.059.006-.086.006q-.066.008-.14.024c-.108.02-.23.043-.287 0-.117-.093-.23-.198-.34-.3m-.13.163c.11.102.224.207.344.299l.02.013.04 1.266q.001.06.01.125.015.11 0 .22c-.021.096-.167.195-.274.265l-.018.012a5 5 0 0 1-.122-2.2m9.16 3.457.014.023a5 5 0 0 1-1.318 1.409c-.574-.27-1.146-.562-1.516-1.055q.342-.18.65-.413a6 6 0 0 0 .71-.678q.13-.14.262-.274.114-.04.226-.086a.65.65 0 0 0 .195.302q.076.056.161.097a.6.6 0 0 1 .173.108q.241.268.443.567M4.8 6.649a.234.234 0 0 1 .249-.24.27.27 0 0 1 .173.061.22.22 0 0 1 .073.179.248.248 0 1 1-.496 0m-2.237.92a1.2 1.2 0 0 0 .306-.077q-.187.525-.285 1.073-.009-.198-.016-.395-.007-.302-.006-.6m-.309-1.948q.028-.105.057-.203l.078-.267q-.046.55-.078 1.1a1.3 1.3 0 0 0-.302.057q.067-.118.113-.244c.052-.145.093-.297.132-.443m.024 2.557.015.375a13 13 0 0 0-.359-1.062q.163.065.337.081-.002.301.007.606M1.39 2.135l-.03-.56c.289-.311.616-.584.973-.812q.154.841.184 1.698c.016.586-.018 1.185-.064 1.774l-.322 1.124-.058.21c-.04.143-.078.29-.128.43q-.06.158-.15.302l-.08.156a.6.6 0 0 0-.186.266l-.096-.057a2 2 0 0 1-.209-.134 5 5 0 0 1-.207-.162c-.107-.087-.217-.18-.331-.26q.015-.13 0-.257-.008-.058-.01-.11L.645 4.537q.11-.006.216-.03a.6.6 0 0 1 .12-.021l.08-.006q.155 0 .297-.06c.198-.103.176-.304.16-.437l-.004-.043c-.06-.599-.091-1.212-.122-1.805"></path><path fill="#D40058" d="M12.936 9.55a.225.225 0 1 1 0 .45c-1.184 0-2.312-.507-3.18-1.43a.24.24 0 0 1-.051-.254.226.226 0 0 1 .303-.112q.046.022.08.06c.78.83 1.79 1.286 2.848 1.286m.911-9.113V.44A.22.22 0 0 1 13.871 0h.027a4 4 0 0 1 2.582 1.352.22.22 0 0 1 0 .288.23.23 0 0 1-.168.076.22.22 0 0 1-.169-.079 3.56 3.56 0 0 0-2.296-1.2m.02 5.21c-.073-.018-.147-.039-.219-.052v-1c.196.048.303.132.349.266q.054.18.073.367.022.226.093.443l.018.046a4 4 0 0 1-.314-.07m.393-.879c-.103-.3-.37-.407-.608-.459V3.286a3.39 3.39 0 0 1 2.996 1.797l-.192.151q-.031.026-.064.056a1 1 0 0 1-.093.075h-.01c-.039-.016-.512-.295-.583-.341a.105.105 0 0 0-.162.08.1.1 0 0 0 .047.094l.032.015-.175.062-.05.016a.3.3 0 0 0-.22.182 1 1 0 0 0-.034.091 1.4 1.4 0 0 1-.068.171c-.09.005-.379 0-.578 0a2 2 0 0 1-.07-.162 2 2 0 0 1-.083-.386 2 2 0 0 0-.084-.419m.258 5.098-.008.007a3.4 3.4 0 0 1-.495.094c-.123.013-.183.04-.274-.02a.2.2 0 0 1-.092-.163v-2.21l.96 2.114a2 2 0 0 0-.09.178m1.154-1.813c.178.27.466.443.709.565-.206.276-.453.52-.732.721l-.202-.285a.104.104 0 0 0-.153-.019l-.52.451-.017.016-1.105-2.432V5.81l.168.039q.23.064.468.093c.117.217.277.406.472.557.117.084.387.234.605.186a.33.33 0 0 0 .221-.16.8.8 0 0 0 .082-.326c.026-.334.127-.361.193-.318.13.087.055.306-.045.53l-.02.046a3.1 3.1 0 0 0-.272.785c-.055.28-.002.57.149.812m1.146-2.171c.046.024.093.04.14.062a3.33 3.33 0 0 1-.425 2.444h-.005c-.216-.11-.474-.263-.623-.488a.84.84 0 0 1-.105-.613q.076-.373.247-.712l.02-.046c.088-.196.266-.65-.09-.86-.612-.358-.457.62-.637.724-.012.006-.014.02-.035.024-.09.018-.274-.056-.382-.137q-.18-.138-.306-.325h.195q.18.01.358-.024c.075-.043.117-.149.167-.292q.015-.047.028-.074c.02-.046.023-.047.093-.07l.057-.018.267-.095.036-.014c.01-.005.03-.015.025-.015.02.004.352.199.352.199l.244.134q.024.014.052.013a.1.1 0 0 0 .09-.053.104.104 0 0 0-.04-.142l-.048-.027.035-.03q.028-.027.055-.047l.156-.127q.09.203.156.416a.103.103 0 1 0-.076.192zm-1.344 3.577a3.4 3.4 0 0 1-.683.331.6.6 0 0 1 .117-.145l.433-.377zM11.499 4.96l-.789-.69a5.7 5.7 0 0 0-.723-2.142l.617.523a.23.23 0 0 1 .081.142q.052.193.073.39.021.173.06.344c.054.289.19.557.39.772a1.34 1.34 0 0 0 .98.413q.096 0 .193-.012c.245-.03.49-.076.728-.126v.894l-1.28-.352-.081-.02a.7.7 0 0 1-.138-.04A.3.3 0 0 1 11.54 5zm.277.356 1.335.367v.952a3.33 3.33 0 0 1-2.395-1.027q.037-.315.04-.634-.001-.202-.016-.4l.625.544.033.03q.052.057.12.094.09.04.188.057.035.01.07.018zm1.13-5.313c.221-.012.205.237.205.237v4.056a10 10 0 0 1-.762.133 1.08 1.08 0 0 1-.938-.316 1.3 1.3 0 0 1-.317-.644 3 3 0 0 1-.054-.306l.015.01c.102.079.224.128.352.14a.46.46 0 0 0 .238-.066c.061-.034.09-.041.117-.034a1 1 0 0 1 .28.15c.046.035.051.04-.024.179l-.02.037a.14.14 0 0 0 .124.204.14.14 0 0 0 .12-.073l.019-.034c.066-.126.19-.352-.055-.533a1.2 1.2 0 0 0-.366-.2.42.42 0 0 0-.316.052.2.2 0 0 1-.113.04c-.174-.018-.4-.202-.425-.202-.01-.043-.02-.072-.032-.114a.5.5 0 0 0-.168-.274l-.63-.537a.14.14 0 0 0-.058-.027c.216-.444.526-.834.91-1.144l.005.012a.105.105 0 0 0 .138.052.105.105 0 0 0 .054-.138L11.18.61a3.33 3.33 0 0 1 1.727-.605m2.116 4.601a.1.1 0 0 0-.027.076.1.1 0 0 0 .035.071q.105.095.212.187.029.023.067.024a.105.105 0 0 0 .068-.184q-.106-.09-.207-.182a.104.104 0 0 0-.148.008m-.325-.482a.11.11 0 0 0-.108-.044.105.105 0 0 0-.066.162 1 1 0 0 0 .068.08l.081.083.05.053a.1.1 0 0 0 .076.032q.042 0 .073-.028a.105.105 0 0 0 .004-.148l-.05-.053q-.043-.038-.082-.081a1 1 0 0 1-.046-.056m-.481-.632a.103.103 0 0 0-.017.145q.078.1.13.218a.11.11 0 0 0 .093.058.104.104 0 0 0 .095-.15 1.3 1.3 0 0 0-.156-.258.1.1 0 0 0-.07-.04.1.1 0 0 0-.075.027m-2.813-2.036q.02.002.04-.004a.104.104 0 0 0 .054-.137l-.053-.123-.06-.142a.105.105 0 0 0-.138-.051.1.1 0 0 0-.06.099q0 .02.009.04l.062.137c.018.036.034.078.052.117a.1.1 0 0 0 .095.064m.383.607a.104.104 0 0 0 .026-.146 3 3 0 0 1-.142-.228.11.11 0 0 0-.102-.056.105.105 0 0 0-.083.153l.03.057q.061.102.125.195a.1.1 0 0 0 .086.046.1.1 0 0 0 .06-.02m.558.44a.1.1 0 0 0-.008-.08.1.1 0 0 0-.063-.05l-.103-.034a.4.4 0 0 1-.113-.05l-.021-.023a.1.1 0 0 0-.071-.046.104.104 0 0 0-.09.176.3.3 0 0 0 .058.06.6.6 0 0 0 .18.08l.034.011.026.009.043.013a.1.1 0 0 0 .071 0 .1.1 0 0 0 .057-.065m.614.251a.105.105 0 0 0-.06-.136l-.262-.104a.105.105 0 1 0-.078.196l.265.103a.1.1 0 0 0 .098-.01.1.1 0 0 0 .038-.049z"></path><path fill="#453C90" d="M25.904 4.414a1.1 1.1 0 0 1-.814.358c-.73 0-1.259-.574-1.259-1.362 0-.842.654-1.362 1.259-1.362a1.08 1.08 0 0 1 .814.352V1.02a.043.043 0 0 1 .044-.043h.43a.044.044 0 0 1 .044.043v3.633a.044.044 0 0 1-.045.043h-.43a.044.044 0 0 1-.043-.043zM24.347 3.41c0 .44.202.915.779.918.487 0 .778-.469.778-.918 0-.575-.29-.918-.778-.918-.537-.002-.779.474-.779.917zm2.601 1.287a.04.04 0 0 1-.03-.013.04.04 0 0 1-.013-.03V2.159a.043.043 0 0 1 .043-.043h.393a.043.043 0 0 1 .044.04l.025.246a1.06 1.06 0 0 1 .82-.358c.647 0 .977.423.977 1.254v1.354a.044.044 0 0 1-.044.043h-.43a.04.04 0 0 1-.04-.026l-.004-.017V3.41c0-.217 0-.456-.07-.633-.075-.195-.219-.286-.46-.286-.298 0-.742.251-.742.598v1.564a.044.044 0 0 1-.044.043zm6.825 1.617a.043.043 0 0 1 .04.041v.02L32.694 9.06c-.22.508-.57.829-.987.9a.05.05 0 0 1-.034-.015l-.235-.284a.044.044 0 0 1 .004-.06.1.1 0 0 1 .02-.011c.404-.1.639-.322.783-.742l-1.04-2.477a.04.04 0 0 1 0-.039.05.05 0 0 1 .037-.019h.448a.04.04 0 0 1 .041.028l.775 1.988.794-1.988a.04.04 0 0 1 .04-.028zM20.23.977c.99 0 1.794.85 1.794 1.894s-.806 1.9-1.794 1.9-1.793-.855-1.793-1.9S19.243.977 20.23.977m1.278 1.894c0-.8-.573-1.451-1.278-1.451s-1.278.65-1.278 1.451c0 .802.573 1.453 1.278 1.453s1.278-.652 1.278-1.453m2.573 3.442a.04.04 0 0 1 .04.026l.004.017v2.493a.04.04 0 0 1-.013.03.04.04 0 0 1-.031.013h-.393a.04.04 0 0 1-.043-.04l-.026-.246a1.06 1.06 0 0 1-.82.357c-.648 0-.977-.421-.977-1.254V6.356q0-.01.003-.017a.04.04 0 0 1 .024-.023l.017-.003h.43q.017 0 .03.012l.01.014q.003.008.003.017v1.246c0 .226 0 .456.068.633.077.195.22.285.462.285.298 0 .742-.25.742-.597V6.356a.04.04 0 0 1 .027-.04l.017-.003zm4.74.019a.04.04 0 0 1 .003.041L27.76 8.867a.04.04 0 0 1-.039.026h-.413a.04.04 0 0 1-.039-.026l-1.05-2.493a.04.04 0 0 1 .005-.039.04.04 0 0 1 .036-.019h.447a.04.04 0 0 1 .041.028l.766 1.963.794-1.964a.04.04 0 0 1 .04-.027h.436a.04.04 0 0 1 .037.016m1.228-.09c.765 0 1.187.503 1.187 1.42a.04.04 0 0 1-.013.03.04.04 0 0 1-.03.013h-1.884c.032.403.24.818.74.818.367 0 .695-.112.899-.306a.05.05 0 0 1 .039-.011.04.04 0 0 1 .03.027l.126.337a.05.05 0 0 1-.012.049c-.337.286-.775.347-1.083.347-.752 0-1.259-.547-1.259-1.362 0-.79.53-1.363 1.26-1.363m-.735 1.093h1.398c-.075-.44-.287-.647-.664-.647-.376 0-.658.252-.734.647m-6.905-2.64a.043.043 0 0 1-.043-.043V2.163a.043.043 0 0 1 .043-.043h.394a.044.044 0 0 1 .043.039l.022.226a.77.77 0 0 1 .636-.339q.139.003.273.04a.04.04 0 0 1 .034.042v.39a.043.043 0 0 1-.065.04.4.4 0 0 0-.264-.066c-.557 0-.6.62-.6.81v1.35a.04.04 0 0 1-.013.031.04.04 0 0 1-.031.012zm16.404-2.649c.765 0 1.187.503 1.187 1.417a.043.043 0 0 1-.043.043h-1.884c.032.404.24.818.74.818.372 0 .694-.114.898-.306a.043.043 0 0 1 .059-.002q.008.007.012.018l.126.336a.04.04 0 0 1-.014.053c-.336.288-.773.348-1.082.348-.753 0-1.259-.547-1.259-1.362.001-.792.53-1.363 1.26-1.363m-.735 1.09h1.399c-.076-.44-.288-.647-.664-.647s-.66.253-.735.647M20.305 6.713c.779.205 1.174.6 1.172 1.174-.004.634-.492 1.076-1.187 1.076-.52-.005-.989-.178-1.254-.463a.04.04 0 0 1 0-.054l.224-.321a.05.05 0 0 1 .032-.018.04.04 0 0 1 .033.011c.263.245.606.388.965.4a.613.613 0 0 0 .636-.633c.004-.432-.339-.56-.754-.672-.666-.182-1.031-.564-1.031-1.072 0-.664.597-.97 1.15-.97.318.002.63.092.899.26a.04.04 0 0 1 .019.028.04.04 0 0 1-.007.033l-.22.312a.045.045 0 0 1-.057.014 1.46 1.46 0 0 0-.635-.2c-.313 0-.634.162-.634.526-.008.35.367.488.65.569zm5.716-.436a.045.045 0 0 1 .034.044v.39a.044.044 0 0 1-.045.045.1.1 0 0 1-.021-.006.4.4 0 0 0-.265-.065c-.556 0-.599.62-.599.81V8.85a.04.04 0 0 1-.012.03.04.04 0 0 1-.031.013h-.43a.04.04 0 0 1-.03-.012l-.01-.014-.004-.017V6.356a.04.04 0 0 1 .027-.04l.017-.003h.393a.044.044 0 0 1 .044.039l.022.225a.77.77 0 0 1 .636-.339q.139.004.274.04m11.211-2.205a.04.04 0 0 1 .027.032l.11.337a.04.04 0 0 1-.013.047c-.228.187-.533.283-.906.283-.762 0-1.295-.577-1.295-1.367s.547-1.363 1.3-1.363c.188 0 .652.036.893.37a.04.04 0 0 1 0 .05l-.181.261a.04.04 0 0 1-.034.02.06.06 0 0 1-.036-.017c-.18-.223-.388-.24-.644-.24-.574 0-.777.494-.777.918 0 .582.283.917.777.917.267.012.53-.074.739-.24a.04.04 0 0 1 .04-.008m-6.496.699c-.73 0-1.259-.576-1.259-1.362 0-.843.654-1.363 1.259-1.363a1.08 1.08 0 0 1 .826.362l.026-.253a.043.043 0 0 1 .044-.039h.391a.043.043 0 0 1 .044.044v2.497a.043.043 0 0 1-.044.044h-.43a.043.043 0 0 1-.043-.044v-.24a1.1 1.1 0 0 1-.813.354zm-.742-1.362c0 .44.204.915.777.917.488 0 .779-.469.779-.917 0-.576-.291-.919-.779-.919-.537 0-.777.476-.777.919m3.883-1.363c.648 0 .976.421.973 1.253v1.353a.043.043 0 0 1-.043.043h-.43a.04.04 0 0 1-.03-.012l-.01-.014-.004-.017V3.41c0-.217 0-.456-.068-.633-.078-.195-.22-.286-.462-.286-.297 0-.742.251-.742.598v1.564a.043.043 0 0 1-.043.043h-.43a.043.043 0 0 1-.043-.043V2.161a.043.043 0 0 1 .043-.043h.396a.043.043 0 0 1 .043.039l.025.246a1.06 1.06 0 0 1 .826-.357z"></path></svg>