<svg version="1.1" id="Layer_1" xmlns:x="ns_extend;" xmlns:i="ns_ai;" xmlns:graph="ns_graphs;" xmlns="http://www.w3.org/2000/svg" xmlns:xlink="http://www.w3.org/1999/xlink" x="0px" y="0px" viewBox="0 0 169.2 39.5" style="enable-background:new 0 0 169.2 39.5;" xml:space="preserve">
 <style type="text/css">
  .st0{fill:#EC1E26;}
 </style>
 <metadata>
  <sfw xmlns="ns_sfw;">
   <slices>
   </slices>
   <sliceSourceBounds bottomLeftOrigin="true" height="39.5" width="169.1" x="0" y="0">
   </sliceSourceBounds>
  </sfw>
 </metadata>
 <g>
  <path d="M61.1,7.3c-6.6-0.1-12,5.1-12.2,11.7c0,0.2,0,0.3,0,0.5c-0.1,6.6,5.1,12,11.7,12.2c0.2,0,0.3,0,0.5,0
		c3.7,0.1,7.2-1.4,9.7-4.2l-3.4-3.4c-1.6,1.7-3.9,2.7-6.3,2.6c-4,0-6.8-3.2-6.8-7.3s2.8-7.3,6.8-7.3c2.2-0.1,4.4,0.8,5.9,2.4
		l3.5-3.5C68.1,8.6,64.6,7.2,61.1,7.3 M87.4,7.6h-4.9l-10,23.7h5.3l1.9-4.5h10.6l1.9,4.5h5.3L87.4,7.6z M159.6,7.7h-10.8v23.6h5.2
		V12.5h5.2c2.4,0,4,1.1,4,3.4s-1.6,3.4-4,3.4h-2.4v4.8l2.4,2.6c4.2,4.4,5.9,4.8,8.7,4.8c0.4,0,0.8,0,1.2-0.1v-4.4
		c-0.1,0-0.3,0-0.4,0c-1.6,0-3-0.7-5.3-3l-0.9-0.9c3.5-0.7,6-3.8,5.9-7.4C168.4,10.5,164.5,7.7,159.6,7.7 M106.4,7.7h-5.2v23.6h16.9
		v-4.8h-11.8L106.4,7.7L106.4,7.7z M81.4,22.3l3.5-8.5l3.5,8.5H81.4z M131.9,26.8c-3.8,0-7-3.1-6.9-7c0-0.1,0-0.2,0-0.3
		c-0.2-3.8,2.8-7.1,6.6-7.3c3.8-0.2,7.1,2.8,7.3,6.6c0,0.2,0,0.4,0,0.7c0.2,3.8-2.7,7.1-6.6,7.3C132.2,26.8,132,26.8,131.9,26.8
		 M131.9,7.3c-6.7-0.1-12.2,5.2-12.3,11.9c0,0.1,0,0.2,0,0.3c0,6.8,5.5,12.3,12.3,12.2c6.8,0,12.2-5.5,12.2-12.2
		c0.1-6.7-5.3-12.1-11.9-12.2C132.1,7.3,132,7.3,131.9,7.3">
  </path>
  <path class="st0" d="M39.6,19.7c0-7.3-4-14-10.5-17.5v5.9c6.4,5.1,7.4,14.5,2.3,20.9S17,36.4,10.6,31.3S3.1,16.9,8.2,10.5
		c0.7-0.8,1.4-1.6,2.3-2.3V2.2C0.8,7.4-2.8,19.4,2.3,29s17.1,13.3,26.8,8.2C35.6,33.7,39.6,27,39.6,19.7z M31.4,19.7
		c0-3.5-1.6-6.8-4.3-9c-0.8-0.5-1.2-1.4-1.2-2.4V0.9C24.5,0.4,23,0.1,21.5,0v8.3l0,0v2.4C21.4,12,22,13.2,23,14
		c3.2,1.8,4.3,5.8,2.5,9c-1.8,3.2-5.8,4.3-9,2.5c-3.2-1.8-4.3-5.8-2.5-9c0.6-1.1,1.5-1.9,2.5-2.5c1.1-0.7,1.7-2,1.6-3.3V0
		c-1.5,0.1-2.9,0.4-4.4,0.8v7.5c0,0.9-0.5,1.8-1.2,2.4c-5,4-5.8,11.3-1.8,16.3s11.3,5.8,16.3,1.8C29.8,26.5,31.4,23.2,31.4,19.7
		L31.4,19.7z">
  </path>
 </g>
</svg>