<svg width="80" height="80" viewBox="0 0 80 80" fill="none" xmlns="http://www.w3.org/2000/svg">
<path d="M12.4244 14.6711H9.00961L9.47526 10.8834H13.0735C14.6821 10.8834 15.4934 11.5888 15.3594 12.6962V12.7385C15.1901 14.0434 14.033 14.6711 12.4244 14.6711ZM15.4088 18.741V18.7057C15.5569 17.4996 14.7032 16.7872 12.7066 16.7872H8.74857L8.26881 20.7018H12.4173C14.1106 20.7018 15.2535 20.0247 15.4088 18.741ZM36.9133 21.0051C37.8249 20.9749 38.6922 20.6051 39.345 19.9682C39.9977 19.3313 40.3886 18.4734 40.441 17.563V17.5207C40.6738 15.447 39.4391 14.1069 37.767 14.1069C36.8641 14.1596 36.0104 14.5359 35.3625 15.1668C34.7146 15.7977 34.3159 16.6409 34.2393 17.5419V17.5842C33.9501 19.6226 35.2765 21.0051 36.9133 21.0051ZM49.3588 21.0051C50.2624 20.9507 51.1161 20.5729 51.7639 19.9409C52.4117 19.3088 52.8102 18.4647 52.8865 17.563V17.5207C53.1546 15.447 51.8564 14.1069 50.2055 14.1069C49.2945 14.1353 48.4272 14.5037 47.7743 15.1394C47.1215 15.7752 46.7303 16.6322 46.6778 17.5419V17.5842C46.4309 19.6367 47.6867 21.0051 49.3871 21.0051H49.3588ZM29.9356 32.6856L29.6675 34.9004H49.5211C51.0132 34.9312 52.4907 34.6017 53.8283 33.9399C55.1659 33.278 56.324 32.3033 57.2043 31.0986L59.6384 35.5916C59.746 35.7888 59.9107 35.9488 60.1109 36.0508C60.3111 36.1527 60.5374 36.1918 60.7602 36.1629C60.9821 36.1335 61.1898 36.0375 61.3561 35.8877C61.5223 35.7378 61.6393 35.5412 61.6915 35.3236L66.6937 13.4579L69.022 39.9436C69.0466 40.2253 69.1627 40.4913 69.3524 40.7011C69.5422 40.9108 69.7953 41.0529 70.0733 41.1056C70.3512 41.1583 70.6388 41.1188 70.8922 40.993C71.1457 40.8673 71.3511 40.6623 71.4772 40.4091L75.2377 32.6503C75.9432 33.7366 77.0368 34.9215 78.7089 34.9215H80V80H0V0H80V32.6856H78.7089C77.707 32.6856 76.938 31.2044 76.5217 30.4073C76.38 30.0841 76.1897 29.7844 75.9573 29.5186C75.8324 29.401 75.6824 29.3133 75.5186 29.262C75.3549 29.2107 75.1816 29.1971 75.0119 29.2224C74.8416 29.251 74.6804 29.3188 74.5408 29.4204C74.4012 29.522 74.2872 29.6546 74.2076 29.8078L70.9339 36.7907L68.4364 8.94375C68.4616 8.56961 68.3372 8.20077 68.0904 7.91835C67.8437 7.63594 67.4948 7.4631 67.1206 7.43784C66.7463 7.41259 66.3774 7.53699 66.0949 7.78369C65.8124 8.03039 65.6395 8.37917 65.6143 8.75331L60.2169 32.0296L58.2838 28.5029C58.2109 28.3672 58.1106 28.2482 57.9891 28.1534C57.8676 28.0587 57.7277 27.9904 57.5783 27.9527C57.4286 27.9149 57.2727 27.9092 57.1207 27.9359C56.9687 27.9627 56.8241 28.0213 56.6964 28.1079C56.4492 28.2927 56.2507 28.5348 56.1178 28.8133C55.4842 30.0108 54.5341 31.0117 53.3709 31.7069C52.2078 32.4021 50.8762 32.765 49.5211 32.7561L29.9356 32.6856ZM48.5052 23.1423C49.2653 23.135 50.0135 22.9523 50.6914 22.6085C51.3694 22.2647 51.9588 21.7691 52.4138 21.1603L52.2092 22.9166H54.6715L55.9908 12.1672H53.5144L53.3098 13.8388C52.9629 13.243 52.4607 12.7525 51.8569 12.4196C51.253 12.0867 50.5701 11.9239 49.8809 11.9485C47.3128 11.9485 44.6459 13.9587 44.2014 17.5207V17.563C43.7428 21.1603 45.9794 23.1423 48.5052 23.1423ZM30.7399 26.1753H33.2093L33.809 21.2379C34.1561 21.8356 34.6591 22.3278 35.2643 22.662C35.8694 22.9961 36.554 23.1597 37.2449 23.1353C39.7919 23.1353 42.4799 21.118 42.8891 17.556V17.5137C43.3266 13.9305 41.1112 11.9415 38.5854 11.9415C37.8217 11.951 37.0706 12.1375 36.3912 12.4863C35.7117 12.8351 35.1225 13.3367 34.6697 13.9517L34.8884 12.1601H32.4544L30.7399 26.1753ZM5.53135 22.9166H12.1281C15.3029 22.9166 17.5677 21.5553 17.8781 19.009V18.9667C18.118 17.034 17.0738 16.0748 15.4723 15.5105C16.1222 15.2424 16.6894 14.8067 17.1158 14.2478C17.5422 13.689 17.8125 13.0269 17.8993 12.3294V12.2941C17.9694 11.8752 17.9456 11.446 17.8297 11.0374C17.7138 10.6288 17.5086 10.251 17.229 9.93123C16.5235 9.11303 15.2888 8.66867 13.6591 8.66867H7.28106L5.53135 22.9166ZM30.1049 12.1672H27.6215L26.8736 18.2331C26.848 18.9454 26.5469 19.62 26.0336 20.1147C25.5203 20.6094 24.835 20.8857 24.1221 20.8852C22.6616 20.8852 21.942 19.9471 22.1466 18.2754L22.8944 12.1672H20.4604L19.5926 19.0443C19.2821 21.5482 20.4886 23.1776 22.9085 23.1776C23.6149 23.1693 24.3091 22.9929 24.9336 22.663C25.5581 22.333 26.095 21.859 26.4997 21.2802L26.2951 22.9519H28.7786L30.1049 12.1672Z" fill="#0079C8"/>
<path d="M80.0004 32.6864V34.9012H78.7093C77.0372 34.9012 75.9436 33.7162 75.2381 32.63L71.4776 40.3888C71.3515 40.6419 71.1461 40.847 70.8926 40.9727C70.6392 41.0984 70.3517 41.1379 70.0737 41.0852C69.7957 41.0325 69.5426 40.8905 69.3528 40.6807C69.1631 40.471 69.047 40.205 69.0224 39.9232L66.6941 13.4376L61.6919 35.3032C61.6397 35.5208 61.5227 35.7175 61.3565 35.8673C61.1902 36.0172 60.9825 36.1131 60.7606 36.1426C60.5378 36.1715 60.3115 36.1324 60.1113 36.0304C59.9111 35.9285 59.7464 35.7684 59.6388 35.5713L57.2047 31.0782C56.3244 32.283 55.1662 33.2577 53.8287 33.9195C52.4911 34.5814 51.0136 34.9109 49.5215 34.88H29.6679L29.936 32.6653H49.5215C50.8766 32.6741 52.2082 32.3112 53.3713 31.616C54.5345 30.9208 55.4846 29.9199 56.1182 28.7224C56.2511 28.4439 56.4496 28.2018 56.6968 28.017C56.8245 27.9304 56.9691 27.8718 57.1211 27.8451C57.2731 27.8183 57.429 27.8241 57.5787 27.8619C57.7281 27.8995 57.868 27.9678 57.9895 28.0626C58.111 28.1573 58.2113 28.2763 58.2842 28.412L60.2173 31.9387L65.6147 8.66243C65.6399 8.28829 65.8128 7.93951 66.0953 7.69281C66.3778 7.44611 66.7467 7.32171 67.121 7.34696C67.4952 7.37222 67.8441 7.54506 68.0908 7.82747C68.3376 8.10989 68.462 8.47873 68.4368 8.85287L70.9626 36.6998L74.2292 29.7169C74.3087 29.5637 74.4228 29.4311 74.5624 29.3295C74.7019 29.2279 74.8632 29.1601 75.0335 29.1315C75.2032 29.1063 75.3764 29.1198 75.5402 29.1711C75.7039 29.2224 75.8539 29.3102 75.9789 29.4277C76.2112 29.6935 76.4016 29.9932 76.5433 30.3165C76.9596 31.1135 77.7286 32.5947 78.7304 32.5947L80.0004 32.6864ZM44.2018 17.5639V17.5215C44.6463 13.9596 47.3132 11.9493 49.8813 11.9493C50.5705 11.9247 51.2534 12.0875 51.8573 12.4204C52.4611 12.7533 52.9633 13.2438 53.3102 13.8396L53.5148 12.168H55.9771L54.6578 22.9174H52.2096L52.4142 21.1611C51.9629 21.7764 51.3751 22.2788 50.6969 22.6288C50.0188 22.9788 49.2687 23.1669 48.5056 23.1784C45.9798 23.1431 43.7432 21.1611 44.2018 17.5639ZM49.3875 21.0059C50.291 20.9515 51.1447 20.5738 51.7925 19.9417C52.4403 19.3096 52.8388 18.4656 52.9151 17.5639V17.5215C53.155 15.4478 51.8568 14.1077 50.2059 14.1077C49.2949 14.1361 48.4276 14.5045 47.7747 15.1402C47.1218 15.776 46.7307 16.633 46.6782 17.5427V17.585C46.4313 19.6376 47.6871 21.0059 49.3875 21.0059ZM15.4797 15.5184C17.0813 16.0826 18.1254 17.0419 17.8856 18.9745V19.0451C17.5751 21.5914 15.3104 22.9527 12.1355 22.9527H5.53174L7.28145 8.70475H13.6736C15.3033 8.70475 16.5309 9.14911 17.2435 9.96731C17.5231 10.2871 17.7283 10.6649 17.8442 11.0735C17.9601 11.4821 17.9839 11.9113 17.9138 12.3302V12.3655C17.8217 13.0587 17.5481 13.7154 17.1207 14.269C16.6933 14.8227 16.1272 15.2536 15.4797 15.5184ZM9.01 14.6719H12.4248C14.0334 14.6719 15.1904 14.0442 15.3527 12.7393V12.697C15.4868 11.5825 14.6472 10.8843 13.0668 10.8843H9.46859L9.01 14.6719ZM12.714 16.788H8.74895L8.26919 20.7026H12.4177C14.1321 20.7026 15.2398 19.9973 15.4092 18.7418V18.7065C15.5644 17.5004 14.6895 16.788 12.6999 16.788H12.714ZM27.6219 12.168L26.874 18.2339C26.8484 18.9462 26.5473 19.6208 26.034 20.1155C25.5207 20.6103 24.8354 20.8865 24.1224 20.886C22.662 20.886 21.9424 19.9479 22.147 18.2763L22.8948 12.168H20.4607L19.5929 19.0451C19.2825 21.549 20.489 23.1784 22.9089 23.1784C23.6153 23.1702 24.3095 22.9937 24.934 22.6638C25.5585 22.3338 26.0954 21.8598 26.5001 21.281L26.2955 22.9527H28.7789L30.1053 12.2032L27.6219 12.168ZM33.2097 26.1761H30.7403L32.4548 12.168H34.9241L34.7054 13.9596C35.1581 13.3446 35.7474 12.843 36.4268 12.4942C37.1063 12.1454 37.8574 11.9589 38.6211 11.9493C41.1469 11.9493 43.3622 13.9384 42.9248 17.5215V17.5639C42.4874 21.1258 39.7993 23.1431 37.2806 23.1431C36.5897 23.1676 35.9051 23.004 35.3 22.6698C34.6948 22.3357 34.1918 21.8434 33.8446 21.2457L33.2097 26.1761ZM36.9137 21.0059C37.8253 20.9757 38.6926 20.6059 39.3454 19.969C39.9981 19.3321 40.389 18.4742 40.4413 17.5639V17.5215C40.6742 15.4478 39.4395 14.1077 37.7674 14.1077C36.8645 14.1604 36.0108 14.5367 35.3629 15.1676C34.715 15.7985 34.3163 16.6417 34.2397 17.5427V17.585C33.9505 19.6235 35.2769 21.0059 36.9137 21.0059Z" fill="white"/>
</svg>
