<?xml version="1.0" encoding="UTF-8" standalone="no"?>
<!-- Generator: Adobe Illustrator 23.1.0, SVG Export Plug-In . SVG Version: 6.00 Build 0)  -->

<svg
   version="1.1"
   id="Layer_1"
   x="0px"
   y="0px"
   viewBox="0 0 125.6 42"
   xml:space="preserve"
   width="125.6"
   height="42"
   xmlns:sodipodi="http://sodipodi.sourceforge.net/DTD/sodipodi-0.dtd"
   xmlns:xlink="http://www.w3.org/1999/xlink"
   xmlns="http://www.w3.org/2000/svg"
   xmlns:svg="http://www.w3.org/2000/svg"><defs
   id="defs49" />
<style
   type="text/css"
   id="style2">
	.st0{clip-path:url(#SVGID_2_);fill:#034EA2;}
	.st1{clip-path:url(#SVGID_2_);fill:#00AEEF;}
</style>
<g
   id="g44"
   transform="translate(-1.2500008,-18.42442)">
	<defs
   id="defs5">
		<rect
   id="SVGID_1_"
   x="-23.700001"
   y="-8"
   width="165"
   height="92.599998" />
	</defs>
	<clipPath
   id="SVGID_2_">
		<use
   xlink:href="#SVGID_1_"
   style="overflow:visible"
   id="use7"
   x="0"
   y="0"
   width="100%"
   height="100%" />
	</clipPath>
	<path
   class="st0"
   d="m 5,31.7 c 1,1.1 2.6,2 4.6,2 2.1,0 2.9,-1 2.9,-2 C 12.5,30.4 10.9,30 9.2,29.5 6.8,28.9 4,28.2 4,25.1 c 0,-2.4 2.1,-4.3 5.3,-4.3 2.3,0 4.1,0.7 5.5,2 l -1.5,1.9 C 12.2,23.6 10.6,23 9.1,23 c -1.5,0 -2.5,0.7 -2.5,1.8 0,1.1 1.5,1.5 3.2,2 2.4,0.6 5.3,1.4 5.3,4.5 0,2.4 -1.7,4.5 -5.7,4.5 -2.7,0 -4.6,-0.9 -5.9,-2.3 z"
   clip-path="url(#SVGID_2_)"
   id="path10" />
	<path
   class="st0"
   d="m 24.7,30.4 c 0,-1.9 -1.1,-3.5 -3.1,-3.5 -2,0 -3,1.6 -3,3.5 0,1.9 1.1,3.5 3,3.5 2,0 3.1,-1.6 3.1,-3.5 m -8.5,0 c 0,-3 2.1,-5.5 5.4,-5.5 3.4,0 5.5,2.5 5.5,5.5 0,3 -2.1,5.6 -5.5,5.6 -3.3,0 -5.4,-2.6 -5.4,-5.6"
   clip-path="url(#SVGID_2_)"
   id="path12" />
	<path
   class="st0"
   d="m 35.5,34.3 c -0.8,0.9 -2.1,1.7 -3.7,1.7 -2.3,0 -3.4,-1.2 -3.4,-3.4 v -7.5 h 2.3 v 6.7 c 0,1.6 0.8,2.1 2.1,2.1 1.2,0 2.2,-0.7 2.7,-1.4 v -7.4 h 2.3 v 10.6 h -2.3 z"
   clip-path="url(#SVGID_2_)"
   id="path14" />
	<path
   class="st0"
   d="m 40.9,33.2 v -6.1 h -1.8 v -2 h 1.8 v -2.9 h 2.3 v 2.9 h 2.1 v 2 h -2.1 v 5.5 c 0,0.7 0.4,1.3 1,1.3 0.4,0 0.9,-0.2 1,-0.4 l 0.5,1.7 c -0.4,0.4 -1.1,0.7 -2.2,0.7 C 41.9,36 40.9,35 40.9,33.2"
   clip-path="url(#SVGID_2_)"
   id="path16" />
	<path
   class="st0"
   d="m 54.3,29 c 0,-1.6 -0.9,-2.1 -2.1,-2.1 -1.2,0 -2.2,0.7 -2.7,1.4 v 7.4 H 47.2 V 21.1 h 2.3 v 5.5 c 0.7,-0.8 2.1,-1.7 3.8,-1.7 2.3,0 3.4,1.2 3.4,3.4 v 7.5 H 54.4 V 29 Z"
   clip-path="url(#SVGID_2_)"
   id="path18" />
	<path
   class="st0"
   d="m 60.2,29.5 h 6 c 0,-1.2 -0.9,-2.8 -3,-2.8 -2,0 -2.9,1.5 -3,2.8 m 3,-4.7 c 3.2,0 5.2,2.4 5.2,5.8 v 0.5 h -8.2 c 0.2,1.6 1.4,2.9 3.4,2.9 1,0 2.3,-0.4 3,-1.2 l 1.1,1.5 c -1.1,1 -2.6,1.5 -4.3,1.5 -3.2,0 -5.5,-2.2 -5.5,-5.6 -0.1,-2.9 2.2,-5.4 5.3,-5.4"
   clip-path="url(#SVGID_2_)"
   id="path20" />
	<path
   class="st0"
   d="M 69.7,25.1 H 72 v 1.6 c 0.8,-1 2.1,-1.8 3.4,-1.8 v 2.3 c -0.2,0 -0.4,-0.1 -0.7,-0.1 -1,0 -2.3,0.7 -2.7,1.4 v 7.2 h -2.3 z"
   clip-path="url(#SVGID_2_)"
   id="path22" />
	<path
   class="st0"
   d="m 83.9,29.1 c 0,-1.6 -0.8,-2.2 -2.1,-2.2 -1.2,0 -2.2,0.7 -2.7,1.4 v 7.4 H 76.8 V 25.1 h 2.3 v 1.4 c 0.7,-0.8 2.1,-1.7 3.7,-1.7 2.3,0 3.4,1.2 3.4,3.4 v 7.5 h -2.3 z"
   clip-path="url(#SVGID_2_)"
   id="path24" />
	<polygon
   class="st0"
   points="6.3,41.8 3.5,41.8 7.7,56.4 10.4,56.4 13.2,45.6 16.1,56.4 18.8,56.4 23,41.8 20.1,41.8 17.3,53.1 14.3,41.8 12.2,41.8 9.2,53.1 "
   clip-path="url(#SVGID_2_)"
   id="polygon26" />
	<path
   class="st0"
   d="m 29.9,52.4 c -0.5,-0.7 -1.5,-1.1 -2.5,-1.1 -1.3,0 -2.3,0.7 -2.3,1.9 0,1.1 1,1.9 2.3,1.9 1,0 2,-0.4 2.5,-1.1 z m 0,2.9 c -0.8,0.9 -2,1.4 -3.4,1.4 -1.7,0 -3.7,-1.2 -3.7,-3.5 0,-2.4 2,-3.4 3.7,-3.4 1.4,0 2.7,0.5 3.4,1.4 v -1.6 c 0,-1.2 -1,-2 -2.5,-2 -1.2,0 -2.2,0.4 -3.1,1.3 l -0.9,-1.6 c 1.2,-1.2 2.8,-1.7 4.5,-1.7 2.3,0 4.4,1 4.4,3.8 v 7 H 30 v -1.1 z"
   clip-path="url(#SVGID_2_)"
   id="path28" />
	<path
   class="st0"
   d="m 35,54 v -6.1 h -1.8 v -2 H 35 V 43 h 2.3 v 2.9 h 2.1 v 2 h -2.1 v 5.5 c 0,0.7 0.4,1.3 1,1.3 0.4,0 0.9,-0.2 1,-0.4 l 0.5,1.7 c -0.4,0.4 -1.1,0.7 -2.2,0.7 -1.7,0 -2.6,-1 -2.6,-2.7"
   clip-path="url(#SVGID_2_)"
   id="path30" />
	<path
   class="st0"
   d="m 42.9,50.3 h 6 c 0,-1.2 -0.9,-2.8 -3,-2.8 -2,0 -2.9,1.5 -3,2.8 m 3,-4.7 c 3.2,0 5.2,2.4 5.2,5.8 v 0.5 h -8.2 c 0.2,1.6 1.4,2.9 3.4,2.9 1,0 2.3,-0.4 3,-1.2 l 1.1,1.5 c -1.1,1 -2.6,1.5 -4.3,1.5 -3.2,0 -5.5,-2.2 -5.5,-5.6 -0.1,-3 2.2,-5.4 5.3,-5.4"
   clip-path="url(#SVGID_2_)"
   id="path32" />
	<path
   class="st0"
   d="M 52.7,45.8 H 55 v 1.6 c 0.8,-1 2.1,-1.8 3.4,-1.8 v 2.3 c -0.2,0 -0.4,-0.1 -0.7,-0.1 -1,0 -2.3,0.7 -2.7,1.4 v 7.2 h -2.3 z"
   clip-path="url(#SVGID_2_)"
   id="path34" />
	<path
   class="st0"
   d="m 97.1,33.7 c 5.5,-3 9.5,-1.8 13,-0.6 3.8,1.3 8.2,3 14.5,0.4 -2.8,4.8 -8.9,6.2 -13.2,5.6 -4,-0.6 -9.6,-4.3 -18.6,-2.3 1.6,-1.7 3.5,-2.7 4.3,-3.1"
   clip-path="url(#SVGID_2_)"
   id="path36" />
	<path
   class="st1"
   d="M 107.3,42.1 C 98.8,38.3 93,40.4 87.8,42 c -5.7,1.8 -12.5,3.7 -22.3,0.6 4.5,6.2 13.8,7.8 20.3,6.8 6.1,-0.9 14.4,-5.8 28.2,-3.5 -3.2,-2.5 -5.6,-3.3 -6.7,-3.8"
   clip-path="url(#SVGID_2_)"
   id="path38" />
	<path
   class="st0"
   d="M 103,52.7 C 97.4,49.6 93.4,51 89.9,52.2 c -3.9,1.2 -8.4,2 -15.4,0.3 2.9,4.9 9.4,6 13.8,5.4 4.1,-0.5 9.6,-3.6 19.1,-2 -1.6,-1.7 -3.6,-2.8 -4.4,-3.2"
   clip-path="url(#SVGID_2_)"
   id="path40" />
	<path
   class="st0"
   d="m 60.2,54.5 h 0.2 c 0.2,0 0.4,-0.1 0.4,-0.3 0,-0.2 -0.1,-0.3 -0.4,-0.3 -0.1,0 -0.2,0 -0.2,0 z m 0,1.1 h -0.4 v -1.9 c 0.2,0 0.4,-0.1 0.7,-0.1 0.4,0 0.5,0.1 0.6,0.1 0.1,0.1 0.2,0.2 0.2,0.4 0,0.2 -0.2,0.4 -0.4,0.4 v 0 c 0.2,0.1 0.3,0.2 0.3,0.5 0.1,0.3 0.1,0.4 0.1,0.5 h -0.5 c -0.1,-0.1 -0.1,-0.2 -0.1,-0.5 0,-0.2 -0.1,-0.3 -0.4,-0.3 h -0.2 v 0.9 z m -1.2,-1 c 0,0.8 0.6,1.5 1.5,1.5 0.8,0 1.4,-0.7 1.4,-1.5 0,-0.8 -0.6,-1.5 -1.4,-1.5 -0.8,0 -1.5,0.7 -1.5,1.5 m 3.4,0 c 0,1.1 -0.8,1.9 -1.9,1.9 -1.1,0 -1.9,-0.8 -1.9,-1.9 0,-1 0.9,-1.9 1.9,-1.9 1.1,0 1.9,0.9 1.9,1.9"
   clip-path="url(#SVGID_2_)"
   id="path42" />
</g>
</svg>
