<?xml version="1.0" encoding="UTF-8"?>
<svg id="Layer_1" data-name="Layer 1" xmlns="http://www.w3.org/2000/svg" viewBox="0 0 550 596">
  <path id="r54-logo-black" d="M471.63,217.91v104.51l-135.76,78.38v-104.51l-45.25,26.13v83.79c0,14.44-2.83,33.65,7.76,45.4,9.83,10.91,24.67,8.09,36.34,2.08,21.06-10.84,41.27-23.79,61.78-35.63,25.05-14.46,50.09-28.92,75.14-43.38v104.51l45.25-26.13V191.78l-45.25,26.13ZM209.83,399.46c-44.17-26.19-88.97-51.37-133.44-77.04v-52.26l181.02,104.51v-52.26L31.14,191.78v156.77l181.02,104.51v52.26L31.14,400.8v52.26c40.49,23.37,80.97,46.75,121.46,70.12,18.74,10.82,37.39,21.83,56.24,32.47,9.06,5.12,19.23,10.15,29.91,7.22,11.87-3.27,17.28-14.81,18.43-26.24,1.97-19.5,1.2-40.6.18-60.16-1.63-31.08-21.02-61.3-47.52-77.01ZM274.29,241.4v-52.3c1.74,1.01,3.48,2.03,5.21,3.06.87.52,1.74,1.03,2.6,1.55.1.05.2.11.29.17,25.53,15.3,50.07,31.56,80.79,32.12.54.01,1.08.01,1.62.01.35,0,.69,0,1.03-.01,32.03-.55,57.14-17.76,84.12-33.76.73-.44,1.46-.88,2.2-1.31,15.86-9.33,28.36-25.37,17.28-41.63-.17-.25-.34-.48-.51-.72-.01,0-.01,0-.01,0-.07-.1-.14-.2-.21-.29-.07-.1-.14-.2-.22-.29l-.02-.02s-.03-.04-.05-.06c-.18-.25-.38-.5-.58-.75-.02-.01-.03-.02-.04-.04-.21-.26-.43-.52-.66-.78-4.19-4.66-9.74-8.19-15.14-11.37-2.33-1.37-4.67-2.74-7.01-4.1-.07-.05-.14-.08-.21-.12-.67-.38-1.33-.75-1.99-1.13-3.8-2.2-7.61-4.39-11.41-6.59-.08-.04-.16-.08-.24-.13-.78-.43-1.55-.86-2.31-1.3-8.68-5.01-17.36-10.02-26.04-15.04-2.34-1.35-4.69-2.7-7.03-4.06-19.1-11.02-38.18-22.04-57.28-33.06-21.39-12.36-42.78-24.71-64.18-37.06L48.05,163l45.22,26.1,90.51-52.25,26.59,15.35v96.71c0,1.18.19,2.27.49,3.29.01.02.01.04.02.06.04.13.09.26.13.38.04.12.09.24.13.36.28.72.62,1.39.99,2.02.04.06.07.12.11.18.14.23.29.46.45.68,0,.01,0,.02.02.02.08.12.17.24.25.35.03.03.05.05.06.08.97,1.24,2.13,2.34,3.39,3.37,1.75,1.37,3.7,2.56,5.65,3.76,1.07.66,2.14,1.31,3.21,1.96,2.15,1.3,4.31,2.59,6.47,3.87,1.08.64,2.16,1.27,3.25,1.91,2.17,1.27,4.35,2.53,6.53,3.78s4.36,2.5,6.55,3.74c8.74,4.97,17.53,9.88,26.22,14.89l45.23-26.1-45.23-26.11ZM229.04,110.76v-.04l45.25-26.13,135.76,78.39v.04l-45.25,26.13-135.76-78.39Z"/>
</svg>